<?xml version="1.0" standalone="no"?>
<!DOCTYPE svg PUBLIC "-//W3C//DTD SVG 20010904//EN"
 "http://www.w3.org/TR/2001/REC-SVG-20010904/DTD/svg10.dtd">
<svg version="1.0" xmlns="http://www.w3.org/2000/svg"
 width="960.000000pt" height="960.000000pt" viewBox="0 0 960.000000 960.000000"
 preserveAspectRatio="xMidYMid meet">
<metadata>
Created by potrace 1.14, written by Peter Selinger 2001-2017
</metadata>
<g transform="translate(0.000000,960.000000) scale(0.100000,-0.100000)"
fill="#000000" stroke="none">
<path d="M4553 8093 c-132 -203 -1135 -1736 -2228 -3408 -1094 -1672 -2063
-3155 -2155 -3295 l-167 -255 2399 -3 c1319 -1 3477 -1 4796 0 l2399 3 -569
870 c-313 479 -1391 2127 -2395 3663 -1004 1535 -1829 2792 -1833 2792 -4 0
-115 -165 -247 -367z m418 -2055 c89 -156 581 -1005 1091 -1887 510 -882 928
-1605 928 -1607 0 -2 -986 -4 -2191 -4 -1205 0 -2189 4 -2187 8 12 31 2183
3772 2188 3772 4 0 81 -127 171 -282z"/>
</g>
</svg>
